<?xml version="1.0" standalone="no"?>
<!DOCTYPE svg PUBLIC "-//W3C//DTD SVG 20010904//EN"
 "http://www.w3.org/TR/2001/REC-SVG-20010904/DTD/svg10.dtd">
<svg version="1.0" xmlns="http://www.w3.org/2000/svg"
 width="512.000000pt" height="512.000000pt" viewBox="0 0 512.000000 512.000000"
 preserveAspectRatio="xMidYMid meet">
<metadata>
Created by potrace 1.15, written by Peter Selinger 2001-2017
</metadata>
<g transform="translate(0.000000,512.000000) scale(0.100000,-0.100000)"
fill="#000000" stroke="none">
<path d="M203 4958 c-174 -172 -196 -198 -191 -231 3 -19 32 5 192 163 103
102 192 193 197 203 8 14 5 17 -17 17 -21 0 -60 -33 -181 -152z"/>
<path d="M303 4858 c-140 -139 -264 -265 -275 -281 -10 -15 -18 -37 -16 -50 3
-18 49 23 292 263 158 157 292 293 297 303 8 14 5 17 -17 17 -22 0 -75 -47
-281 -252z"/>
<path d="M402 4758 c-194 -194 -362 -365 -373 -381 -11 -15 -19 -37 -17 -50 4
-18 67 40 392 363 213 212 392 393 397 403 8 14 5 17 -18 17 -22 0 -89 -62
-381 -352z"/>
<path d="M502 4658 c-249 -249 -462 -465 -473 -481 -11 -15 -19 -37 -17 -50 4
-18 84 57 492 463 268 267 492 493 497 503 8 14 5 17 -18 17 -22 0 -104 -76
-481 -452z"/>
<path d="M602 4558 c-304 -304 -562 -565 -573 -581 -11 -15 -19 -37 -17 -50 4
-18 101 75 592 563 323 322 592 593 597 603 8 14 5 17 -18 17 -23 0 -118 -91
-581 -552z"/>
<path d="M702 4458 c-359 -359 -662 -665 -673 -681 -11 -15 -19 -37 -17 -50 4
-18 118 92 692 663 378 377 692 693 697 703 8 14 5 17 -18 17 -23 0 -133 -106
-681 -652z"/>
<path d="M802 4358 c-414 -414 -762 -765 -773 -781 -11 -15 -19 -37 -17 -50 4
-18 136 109 792 763 433 432 792 793 797 803 8 14 5 17 -18 17 -23 0 -148
-120 -781 -752z"/>
<path d="M902 4258 c-469 -469 -862 -865 -873 -881 -11 -15 -19 -37 -17 -50 4
-18 153 126 892 863 488 487 892 893 897 903 8 14 5 17 -18 17 -23 0 -162
-135 -881 -852z"/>
<path d="M1002 4158 c-524 -524 -962 -965 -973 -981 -11 -15 -19 -37 -17 -50
4 -18 71 44 417 388 337 335 406 399 373 348 -21 -34 -49 -90 -62 -125 -22
-60 -37 -77 -376 -419 -290 -290 -354 -360 -354 -382 0 -15 3 -27 7 -27 4 0
157 149 339 331 l332 332 -5 -69 -5 -69 -334 -336 c-273 -273 -334 -340 -334
-362 0 -15 3 -27 7 -27 4 0 155 147 335 327 l328 328 0 -65 0 -64 -335 -336
c-274 -275 -335 -341 -335 -363 0 -15 3 -27 7 -27 4 0 155 147 335 327 l328
328 0 -65 0 -64 -335 -336 c-274 -275 -335 -341 -335 -363 0 -15 3 -27 7 -27
4 0 155 147 335 327 l328 328 0 -65 0 -64 -335 -336 c-274 -275 -335 -341
-335 -363 0 -15 3 -27 7 -27 4 0 155 147 335 327 l328 328 0 -65 0 -64 -335
-336 c-274 -275 -335 -341 -335 -363 0 -15 3 -27 7 -27 4 0 155 147 335 327
l328 328 0 -65 0 -64 -335 -336 c-274 -275 -335 -341 -335 -363 0 -15 3 -27 7
-27 4 0 155 147 335 327 l328 328 0 -65 0 -64 -335 -336 c-274 -275 -335 -341
-335 -363 0 -15 3 -27 7 -27 4 0 155 147 335 327 l328 328 0 -65 0 -64 -335
-336 c-274 -275 -335 -341 -335 -363 0 -15 3 -27 7 -27 4 0 155 147 335 327
l328 328 0 -65 0 -64 -335 -336 c-274 -275 -335 -341 -335 -363 0 -15 3 -27 7
-27 4 0 155 147 335 327 l328 328 0 -65 0 -64 -335 -336 c-276 -277 -335 -341
-335 -363 0 -23 3 -26 17 -18 10 5 162 154 338 330 l320 321 12 -53 12 -52
-350 -351 c-285 -286 -349 -355 -349 -377 0 -15 3 -27 7 -27 4 0 166 158 359
351 l352 351 17 -47 18 -46 -376 -378 c-309 -309 -377 -382 -377 -404 0 -15 3
-27 7 -27 4 0 180 172 390 382 210 210 384 380 386 377 2 -2 14 -19 27 -37
l23 -34 -417 -417 c-342 -343 -416 -422 -416 -444 0 -15 3 -27 7 -27 4 0 198
190 430 422 l423 423 32 -33 33 -32 -463 -463 c-384 -385 -462 -468 -462 -490
0 -23 3 -26 18 -18 9 5 224 217 477 470 253 254 464 461 470 461 5 0 23 -12
39 -26 l29 -26 -491 -492 c-271 -270 -492 -495 -492 -499 0 -4 12 -7 27 -7 22
0 111 84 514 486 l486 486 43 -22 43 -22 -457 -457 c-251 -251 -456 -460 -456
-464 0 -4 12 -7 27 -7 22 0 107 80 483 453 l455 453 47 -16 47 -16 -420 -420
c-231 -230 -425 -427 -430 -437 -8 -14 -5 -17 18 -17 22 0 100 73 459 431
l431 431 58 -7 57 -8 -416 -416 c-229 -229 -416 -420 -416 -424 0 -4 12 -7 27
-7 22 0 102 75 453 425 l426 425 64 0 65 0 -418 -418 c-229 -230 -417 -421
-417 -425 0 -4 12 -7 27 -7 22 0 102 75 453 425 l426 425 64 0 65 0 -418 -418
c-229 -230 -417 -421 -417 -425 0 -4 12 -7 27 -7 22 0 102 75 453 425 l426
425 64 0 65 0 -418 -418 c-229 -230 -417 -421 -417 -425 0 -4 12 -7 27 -7 22
0 102 75 453 425 l426 425 64 0 65 0 -418 -418 c-229 -230 -417 -421 -417
-425 0 -4 12 -7 27 -7 22 0 102 75 453 425 l426 425 64 0 65 0 -418 -418
c-229 -230 -417 -421 -417 -425 0 -4 12 -7 27 -7 22 0 102 75 453 425 l426
425 64 0 65 0 -418 -418 c-229 -230 -417 -421 -417 -425 0 -4 12 -7 27 -7 22
0 102 75 453 425 l426 425 64 0 65 0 -418 -418 c-229 -230 -417 -421 -417
-425 0 -4 12 -7 27 -7 22 0 102 75 453 425 l426 425 64 0 65 0 -418 -418
c-229 -230 -417 -421 -417 -425 0 -4 12 -7 27 -7 22 0 102 75 453 425 l426
425 64 0 65 0 -418 -418 c-229 -230 -417 -421 -417 -425 0 -4 12 -7 27 -7 22
0 102 75 453 425 l426 425 64 0 65 0 -418 -418 c-229 -230 -417 -421 -417
-425 0 -4 12 -7 27 -7 22 0 102 75 453 424 l425 425 67 3 68 3 -420 -420
c-231 -231 -420 -424 -420 -428 0 -4 12 -7 27 -7 22 0 104 76 463 435 l435
434 71 24 c38 14 86 32 105 42 20 10 -151 -169 -436 -456 -393 -396 -466 -473
-448 -477 13 -2 35 6 50 17 16 11 470 462 1011 1003 822 824 982 988 982 1011
0 15 -3 27 -7 27 -4 0 -179 -172 -389 -382 l-383 -381 35 84 c18 46 34 91 34
99 0 8 160 175 355 370 291 292 355 361 355 383 0 15 -3 27 -7 27 -4 0 -158
-151 -343 -335 l-336 -336 4 68 4 68 339 341 c277 278 339 345 339 367 0 15
-3 27 -7 27 -4 0 -157 -150 -340 -332 l-333 -333 0 65 0 64 340 341 c278 279
340 346 340 368 0 15 -3 27 -7 27 -4 0 -157 -150 -340 -332 l-333 -333 0 65 0
64 340 341 c278 279 340 346 340 368 0 15 -3 27 -7 27 -4 0 -157 -150 -340
-332 l-333 -333 0 65 0 64 340 341 c278 279 340 346 340 368 0 15 -3 27 -7 27
-4 0 -157 -150 -340 -332 l-333 -333 0 65 0 64 340 341 c278 279 340 346 340
368 0 15 -3 27 -7 27 -4 0 -157 -150 -340 -332 l-333 -333 0 65 0 64 340 341
c278 279 340 346 340 368 0 15 -3 27 -7 27 -4 0 -157 -150 -340 -332 l-333
-333 0 65 0 64 340 341 c278 279 340 346 340 368 0 15 -3 27 -7 27 -4 0 -157
-150 -340 -332 l-333 -333 0 65 0 64 340 341 c278 279 340 346 340 368 0 15
-3 27 -7 27 -4 0 -157 -150 -340 -332 l-333 -333 0 65 0 64 340 341 c280 281
340 346 340 368 0 23 -3 26 -17 18 -10 -5 -162 -154 -338 -331 l-320 -320 -5
57 -5 58 342 346 c280 282 343 350 343 372 0 15 -3 27 -7 27 -4 0 -161 -153
-348 -340 l-341 -341 -12 52 -13 53 361 361 c295 296 360 366 360 388 0 15 -3
27 -7 27 -4 0 -170 -163 -370 -362 -199 -199 -364 -360 -365 -357 -2 2 -12 22
-21 43 l-18 39 390 392 c321 321 391 396 391 418 0 15 -3 27 -7 27 -4 0 -186
-178 -404 -396 l-396 -395 -28 36 -28 37 432 432 c358 359 431 437 431 459 0
23 -3 26 -17 18 -10 -5 -211 -203 -448 -440 l-429 -431 -33 33 -32 32 480 480
c396 397 479 486 479 508 0 15 -3 27 -7 27 -4 0 -228 -220 -498 -490 l-490
-490 -38 27 -38 27 481 481 c264 264 480 484 480 488 0 4 -12 7 -27 7 -22 0
-110 -83 -503 -474 l-475 -475 -42 22 -43 22 436 435 c239 239 440 443 445
453 8 14 5 17 -18 17 -22 0 -103 -75 -473 -444 l-445 -444 -48 17 -47 16 411
410 c225 226 415 418 420 428 8 14 5 17 -18 17 -22 0 -100 -72 -453 -423
l-425 -423 -59 4 -59 4 412 412 c226 226 411 415 411 419 0 4 -12 7 -27 7 -22
0 -101 -74 -448 -420 l-421 -420 -64 0 -65 0 413 413 c226 227 412 416 412
420 0 4 -12 7 -27 7 -22 0 -101 -74 -448 -420 l-421 -420 -64 0 -65 0 413 413
c226 227 412 416 412 420 0 4 -12 7 -27 7 -22 0 -101 -74 -448 -420 l-421
-420 -64 0 -65 0 413 413 c226 227 412 416 412 420 0 4 -12 7 -27 7 -22 0
-101 -74 -448 -420 l-421 -420 -64 0 -65 0 413 413 c226 227 412 416 412 420
0 4 -12 7 -27 7 -22 0 -101 -74 -448 -420 l-421 -420 -64 0 -65 0 413 413
c226 227 412 416 412 420 0 4 -12 7 -27 7 -22 0 -101 -74 -448 -420 l-421
-420 -64 0 -65 0 413 413 c226 227 412 416 412 420 0 4 -12 7 -27 7 -22 0
-101 -74 -448 -420 l-421 -420 -64 0 -65 0 413 413 c226 227 412 416 412 420
0 4 -12 7 -27 7 -22 0 -101 -74 -448 -420 l-421 -420 -64 0 -65 0 413 413
c226 227 412 416 412 420 0 4 -12 7 -27 7 -22 0 -101 -74 -448 -420 l-421
-420 -64 0 -65 0 413 413 c226 227 412 416 412 420 0 4 -12 7 -27 7 -22 0
-101 -74 -448 -420 l-421 -420 -64 0 -65 0 413 413 c226 227 412 416 412 420
0 4 -12 7 -27 7 -22 0 -102 -74 -447 -419 l-421 -419 -70 -6 -70 -7 418 418
c229 230 417 422 417 426 0 4 -12 7 -27 7 -22 0 -105 -77 -468 -439 -242 -241
-451 -442 -465 -446 -33 -10 -157 -72 -195 -98 -16 -11 192 202 463 474 270
272 492 498 492 502 0 4 -12 7 -27 7 -23 0 -183 -155 -981 -952z m298 -503
l-265 -265 -3 37 c-7 81 -2 89 201 290 197 197 200 199 287 202 l45 1 -265
-265z m100 -100 l-365 -365 -3 62 -3 62 303 303 303 303 65 0 65 0 -365 -365z
m100 -100 l-465 -465 -3 62 -3 62 403 403 403 403 65 0 65 0 -465 -465z m415
215 l-250 -250 -65 0 -65 0 250 250 250 250 65 0 65 0 -250 -250z m200 0
l-250 -250 -65 0 -65 0 250 250 250 250 65 0 65 0 -250 -250z m200 0 l-250
-250 -65 0 -65 0 250 250 250 250 65 0 65 0 -250 -250z m200 0 l-250 -250 -65
0 -65 0 250 250 250 250 65 0 65 0 -250 -250z m200 0 l-250 -250 -65 0 -65 0
250 250 250 250 65 0 65 0 -250 -250z m200 0 l-250 -250 -65 0 -65 0 250 250
250 250 65 0 65 0 -250 -250z m200 0 l-250 -250 -65 0 -65 0 250 250 250 250
65 0 65 0 -250 -250z m200 0 l-250 -250 -65 0 -65 0 250 250 250 250 65 0 65
0 -250 -250z m389 234 l38 -7 -238 -238 -239 -239 -65 0 -65 0 250 250 c159
159 255 248 265 245 8 -2 32 -7 54 -11z m133 -55 l35 -22 -203 -203 -204 -204
-65 0 -65 0 225 225 c124 124 229 225 234 225 5 0 24 -10 43 -21z m108 -89
l29 -31 -159 -159 -160 -159 -58 6 -59 6 183 183 c101 101 186 184 190 184 3
0 18 -14 34 -30z m105 -150 c0 -3 -66 -72 -148 -153 l-147 -147 -29 36 -29 36
154 154 154 154 22 -38 c13 -20 23 -39 23 -42z m31 -117 l9 -48 -352 -352
-353 -353 -65 0 -65 0 165 165 c118 118 171 165 188 165 64 0 135 68 148 141
5 27 39 67 157 186 83 84 153 150 155 148 3 -2 8 -26 13 -52z m-243 -500
l-253 -253 -65 0 -65 0 315 315 315 315 3 -62 3 -62 -253 -253z m-2458 162 c6
-7 -47 -67 -170 -190 l-180 -180 0 65 0 65 163 163 162 162 8 -37 c4 -20 12
-42 17 -48z m2527 -293 l-185 -185 -33 23 c-19 13 -36 25 -39 27 -2 2 95 103
215 224 l220 219 3 -62 3 -62 -184 -184z m-2463 231 c4 -5 21 -13 37 -18 l29
-10 -240 -240 -240 -240 0 65 0 65 192 192 c106 106 198 193 204 193 6 0 14
-3 18 -7z m-69 -363 l-340 -340 -3 62 -3 62 278 278 278 278 65 0 65 0 -340
-340z m376 176 l-163 -164 -58 -6 c-103 -12 -161 -69 -168 -165 l-4 -58 -164
-164 -164 -164 0 65 0 65 377 377 378 378 65 0 65 0 -164 -164z m199 -1 l-165
-165 -65 0 -65 0 165 165 165 165 65 0 65 0 -165 -165z m200 0 l-165 -165 -65
0 -65 0 165 165 165 165 65 0 65 0 -165 -165z m200 0 l-165 -165 -65 0 -65 0
165 165 165 165 65 0 65 0 -165 -165z m200 0 l-165 -165 -65 0 -65 0 165 165
165 165 65 0 65 0 -165 -165z m200 0 l-165 -165 -65 0 -65 0 165 165 165 165
65 0 65 0 -165 -165z m200 0 l-165 -165 -65 0 -65 0 165 165 165 165 65 0 65
0 -165 -165z m200 0 l-165 -165 -65 0 -65 0 165 165 165 165 65 0 65 0 -165
-165z m200 0 l-165 -165 -65 0 -65 0 165 165 165 165 65 0 65 0 -165 -165z
m573 -227 l-168 -168 0 65 0 65 165 165 165 165 3 -62 3 -62 -168 -168z m-130
-330 l-298 -298 -65 0 -65 0 360 360 360 360 3 -62 3 -62 -298 -298z m91 -109
c-190 -190 -209 -207 -231 -198 -13 5 -39 9 -56 9 -30 0 -16 16 228 260 l260
260 3 -62 3 -62 -207 -207z m-2469 192 l33 -28 -209 -209 -209 -209 0 65 0 65
172 172 c95 95 174 173 177 173 2 0 18 -13 36 -29z m198 -54 c4 -1 -126 -135
-288 -297 l-295 -295 0 65 0 65 236 236 236 236 51 -4 c29 -3 55 -5 60 -6z
m1852 -157 l-170 -170 -65 0 -65 0 165 165 164 164 55 4 c31 2 63 4 71 5 8 1
-62 -74 -155 -168z m-1800 -1 c-102 -102 -174 -166 -197 -176 -42 -17 -98 -75
-98 -100 0 -25 -322 -346 -332 -330 -4 6 -8 32 -8 57 l0 45 332 332 333 333
65 0 65 0 -160 -161z m195 -4 l-165 -165 -65 0 -65 0 165 165 165 165 65 0 65
0 -165 -165z m200 0 l-165 -165 -65 0 -65 0 165 165 165 165 65 0 65 0 -165
-165z m200 0 l-165 -165 -65 0 -65 0 165 165 165 165 65 0 65 0 -165 -165z
m200 0 l-165 -165 -65 0 -65 0 165 165 165 165 65 0 65 0 -165 -165z m200 0
l-165 -165 -65 0 -65 0 165 165 165 165 65 0 65 0 -165 -165z m200 0 l-165
-165 -65 0 -65 0 165 165 165 165 65 0 65 0 -165 -165z m200 0 l-165 -165 -65
0 -65 0 165 165 165 165 65 0 65 0 -165 -165z m200 0 l-165 -165 -65 0 -65 0
165 165 165 165 65 0 65 0 -165 -165z m667 -133 l-164 -164 -22 43 -22 42 183
184 183 183 3 -62 3 -62 -164 -164z m-259 -459 l-423 -423 -65 0 -65 0 255
255 c140 140 263 255 272 255 26 0 93 65 108 103 7 18 84 104 174 195 l161
162 3 -62 3 -62 -423 -423z m100 -100 l-323 -323 -65 0 -65 0 385 385 385 385
3 -62 3 -62 -323 -323z m-2389 275 l21 -43 -147 -147 c-82 -82 -152 -147 -158
-145 -5 2 -16 20 -24 41 l-14 37 149 150 c82 82 149 149 150 149 1 0 11 -19
23 -42z m2711 -90 l0 -62 -222 -223 -222 -223 -66 0 -65 0 285 285 c157 157
286 285 287 285 2 0 3 -28 3 -62z m-2727 -190 c-170 -170 -178 -177 -196 -160
-50 45 -50 44 117 211 l157 157 50 -15 50 -15 -178 -178z m160 -39 l-221 -222
-36 22 c-20 13 -36 26 -36 29 0 4 87 93 192 199 l193 193 65 0 65 0 -222 -221z
m177 -24 c-135 -135 -251 -245 -259 -245 -7 0 -31 5 -53 12 l-39 12 233 233
233 233 65 0 65 0 -245 -245z m195 -5 l-250 -250 -65 0 -65 0 250 250 250 250
65 0 65 0 -250 -250z m200 0 l-250 -250 -65 0 -65 0 250 250 250 250 65 0 65
0 -250 -250z m200 0 l-250 -250 -65 0 -65 0 250 250 250 250 65 0 65 0 -250
-250z m200 0 l-250 -250 -65 0 -65 0 250 250 250 250 65 0 65 0 -250 -250z
m200 0 l-250 -250 -65 0 -65 0 250 250 250 250 65 0 65 0 -250 -250z m200 0
l-250 -250 -65 0 -65 0 250 250 250 250 65 0 65 0 -250 -250z m200 0 l-250
-250 -65 0 -65 0 250 250 250 250 65 0 65 0 -250 -250z m200 0 l-250 -250 -65
0 -65 0 250 250 250 250 65 0 65 0 -250 -250z m750 54 c-42 -101 -161 -219
-263 -260 -31 -13 -12 10 118 140 85 86 156 156 158 156 1 0 -4 -16 -13 -36z"/>
<path d="M4196 950 c-504 -503 -922 -923 -927 -932 -8 -15 -5 -18 18 -18 23 0
167 139 911 882 486 486 892 895 903 911 11 15 19 37 17 50 -4 18 -158 -132
-922 -893z"/>
<path d="M4296 850 c-449 -448 -822 -823 -827 -832 -8 -15 -5 -18 18 -18 23 0
152 124 811 783 431 430 792 794 803 810 11 15 19 37 17 50 -4 18 -141 -114
-822 -793z"/>
<path d="M4396 750 c-394 -393 -722 -723 -727 -732 -8 -15 -5 -18 18 -18 23 0
137 110 711 683 376 375 692 694 703 710 11 15 19 37 17 50 -4 18 -124 -97
-722 -693z"/>
<path d="M4496 650 c-339 -338 -622 -623 -627 -632 -8 -15 -5 -18 18 -18 23 0
123 95 611 583 321 320 592 594 603 610 11 15 19 37 17 50 -4 18 -106 -80
-622 -593z"/>
<path d="M4596 550 c-284 -283 -522 -523 -527 -533 -8 -14 -5 -17 18 -17 23 0
108 81 511 483 266 265 492 494 503 510 11 15 19 37 17 50 -4 18 -89 -62 -522
-493z"/>
<path d="M4696 450 c-229 -228 -422 -423 -427 -432 -8 -15 -5 -18 18 -18 22 0
93 66 411 383 211 210 392 394 403 410 11 15 19 37 17 50 -4 18 -72 -45 -422
-393z"/>
<path d="M4796 350 c-174 -173 -322 -323 -327 -332 -8 -15 -5 -18 17 -18 23 0
80 52 312 282 156 156 293 295 303 311 11 15 19 37 17 50 -4 18 -54 -28 -322
-293z"/>
<path d="M4896 250 c-119 -118 -222 -223 -227 -232 -8 -15 -5 -18 17 -18 21 0
65 37 211 183 205 202 226 227 221 260 -3 19 -37 -11 -222 -193z"/>
<path d="M4996 150 c-136 -133 -149 -150 -111 -150 18 0 49 23 111 82 102 98
127 130 122 161 -3 19 -19 7 -122 -93z"/>
</g>
</svg>
