<?xml version="1.0" standalone="no"?>
<!DOCTYPE svg PUBLIC "-//W3C//DTD SVG 20010904//EN"
 "http://www.w3.org/TR/2001/REC-SVG-20010904/DTD/svg10.dtd">
<svg version="1.0" xmlns="http://www.w3.org/2000/svg"
 width="450.000000pt" height="416.000000pt" viewBox="0 0 450.000000 416.000000"
 preserveAspectRatio="xMidYMid meet">
<metadata>
Created by potrace 1.15, written by Peter Selinger 2001-2017
</metadata>
<g transform="translate(0.000000,416.000000) scale(0.100000,-0.100000)"
fill="#000000" stroke="none">
<path d="M1905 4143 c-285 -37 -503 -98 -710 -200 -38 -19 -83 -43 -100 -54
-16 -10 -37 -22 -45 -26 -8 -3 -59 -40 -113 -82 -189 -143 -321 -316 -412
-538 -22 -53 -17 -66 34 -82 23 -6 41 -16 41 -21 0 -5 -13 -25 -30 -43 -35
-40 -37 -47 -12 -47 10 0 33 18 52 41 33 41 45 44 93 24 11 -4 17 -3 17 5 0
15 80 135 120 178 16 18 30 35 30 37 0 5 87 91 137 135 48 44 148 118 189 140
21 12 53 30 69 40 29 18 67 37 171 85 114 53 364 119 499 131 67 6 116 24 65
24 -56 0 -299 -31 -393 -50 -218 -44 -427 -131 -605 -252 -52 -35 -103 -69
-115 -77 -12 -7 16 24 63 71 206 204 526 357 880 419 148 27 504 37 676 20
407 -41 780 -190 1049 -419 66 -56 155 -152 155 -167 0 -4 -24 14 -52 40 -169
153 -411 272 -673 333 -171 40 -465 81 -465 64 0 -4 8 -8 18 -8 74 -2 349 -63
474 -105 161 -55 383 -171 465 -243 7 -6 39 -33 71 -61 32 -27 80 -76 107
-107 58 -68 145 -197 145 -217 0 -10 10 -12 45 -7 43 7 45 6 71 -33 15 -24 35
-41 45 -41 25 0 24 7 -7 47 -14 19 -24 40 -21 47 6 15 85 38 101 30 6 -3 4 0
-5 8 -9 7 -19 24 -24 37 -4 13 -22 51 -41 85 -19 33 -40 71 -46 84 -6 12 -15
22 -20 22 -4 0 -8 5 -8 11 0 44 -261 314 -375 388 -22 14 -42 28 -45 32 -22
25 -289 161 -343 174 -15 4 -30 11 -33 16 -3 5 -14 9 -24 9 -11 0 -34 6 -52
14 -65 28 -230 63 -420 91 -138 19 -537 19 -693 -2z"/>
<path d="M2130 3765 c-8 -2 -55 -8 -105 -15 -177 -22 -345 -71 -505 -147 -100
-48 -213 -113 -218 -125 -2 -5 -8 -8 -14 -8 -50 0 -448 -398 -448 -448 0 -6
-3 -12 -7 -14 -9 -4 -43 -53 -61 -88 -12 -24 -18 -25 -105 -26 -59 -1 -106 -8
-131 -18 -21 -9 -41 -16 -43 -16 -3 0 25 36 62 81 37 44 65 82 63 83 -1 2 -39
6 -84 9 l-81 5 -41 -62 c-23 -33 -57 -94 -77 -133 -19 -40 -39 -73 -44 -73
-13 0 -141 -125 -141 -139 0 -6 -5 -11 -10 -11 -6 0 -13 -8 -17 -17 -3 -10
-12 -25 -18 -33 -19 -24 -71 -168 -89 -246 -22 -98 -22 -342 0 -432 19 -77 82
-232 95 -232 5 0 9 -7 9 -16 0 -20 174 -194 194 -194 8 0 16 -3 18 -8 3 -7
125 -82 134 -82 2 0 34 -14 71 -31 38 -17 82 -37 100 -45 17 -8 47 -14 68 -14
31 0 37 -4 46 -30 6 -16 15 -30 20 -30 5 0 9 -5 9 -11 0 -11 91 -151 114 -175
6 -7 38 -44 71 -84 52 -62 112 -119 229 -218 14 -12 63 -48 109 -78 45 -31 74
-54 63 -50 -14 5 -17 3 -12 -10 5 -13 3 -14 -7 -6 -14 12 -112 24 -121 14 -12
-11 -46 -12 -46 -1 0 5 -5 7 -11 4 -5 -4 -44 -7 -85 -7 -43 1 -72 -3 -69 -9 4
-5 2 -9 -4 -9 -5 0 -11 5 -13 11 -4 11 -88 15 -133 6 -11 -3 -29 0 -40 6 -18
9 -19 9 -6 -6 8 -10 9 -17 3 -17 -6 0 -14 5 -17 10 -9 14 -58 13 -73 -2 -9 -9
-12 -9 -12 0 0 15 -32 16 -48 0 -6 -6 -25 -11 -42 -10 -18 0 -30 -4 -30 -12 0
-7 -7 -13 -15 -13 -11 0 -12 4 -3 14 8 11 7 12 -6 7 -9 -3 -16 -12 -16 -20 0
-8 -6 -11 -15 -8 -13 5 -19 -5 -17 -27 1 -4 -10 -10 -24 -13 -14 -4 -23 -10
-20 -15 8 -12 -17 -61 -31 -61 -7 0 -14 -13 -15 -30 -2 -51 -3 -55 -12 -61
-11 -9 -16 -70 -5 -63 5 3 6 10 3 16 -4 6 -3 8 3 5 13 -8 15 -67 2 -67 -5 0
-4 -6 3 -14 7 -8 16 -12 20 -10 3 2 4 -6 1 -18 -4 -19 -3 -20 6 -8 10 13 11
13 12 0 1 -8 1 -21 0 -29 -2 -8 2 -10 10 -5 8 4 10 3 5 -4 -4 -7 3 -22 15 -34
12 -13 19 -18 16 -13 -3 6 3 11 13 11 14 0 16 -4 10 -16 -6 -11 -3 -20 10 -28
14 -9 20 -8 23 1 3 7 6 4 6 -6 1 -10 6 -15 11 -12 6 3 10 0 10 -7 0 -9 3 -9
10 2 9 13 12 12 25 -4 8 -11 15 -14 15 -8 0 7 7 12 15 12 8 0 15 -4 15 -8 0
-4 16 -9 36 -10 27 -2 34 0 28 10 -6 9 0 8 16 -2 20 -12 54 -15 160 -13 199 3
193 3 357 0 84 -1 153 0 153 3 0 8 48 5 57 -3 11 -12 25 -8 17 6 -5 9 -4 9 5
1 8 -7 27 -8 51 -4 22 4 37 3 34 -1 -7 -11 3 -11 43 0 19 6 35 5 41 -1 6 -6
22 -6 46 0 20 6 38 7 40 4 3 -6 61 -6 281 -2 6 0 60 -1 120 -3 61 -1 122 1
136 4 16 4 32 2 38 -4 9 -9 14 -9 20 1 4 7 15 10 24 6 23 -9 257 -11 257 -2 0
4 10 4 23 0 22 -8 132 -7 195 1 18 3 34 1 37 -3 2 -4 25 -4 49 0 25 4 43 3 40
-2 -3 -4 0 -8 5 -8 6 0 11 5 11 11 0 5 5 7 11 3 13 -7 258 -9 265 -1 3 2 19 2
37 -2 38 -8 161 -6 176 3 5 4 12 3 15 -2 3 -5 42 -7 88 -5 102 5 97 5 132 -3
22 -5 27 -4 21 6 -5 8 -4 11 2 7 17 -11 64 -16 58 -6 -6 8 19 13 73 12 12 0
22 4 22 8 0 5 5 9 11 9 5 0 7 -5 4 -10 -13 -21 14 -9 45 20 18 16 39 30 47 30
9 0 12 6 9 18 -4 12 1 26 14 37 20 18 21 18 14 -1 -6 -15 -3 -13 14 6 11 14
16 27 11 28 -5 2 -9 8 -9 13 0 4 8 6 18 2 9 -3 14 -3 10 2 -4 4 -3 14 3 22 6
7 8 13 5 13 -4 0 -2 9 4 19 7 13 7 22 0 26 -5 3 -10 17 -10 31 0 14 4 22 10
19 6 -3 10 -2 10 4 0 5 -5 13 -11 17 -6 3 -9 17 -6 29 3 19 0 23 -15 20 -16
-4 -18 -2 -8 10 7 8 9 15 5 15 -4 0 -2 6 4 14 10 12 8 13 -8 9 -15 -4 -21 -1
-21 11 0 11 5 14 12 10 6 -4 3 5 -8 19 -10 15 -25 27 -33 27 -8 0 -12 3 -8 6
10 10 -17 32 -32 26 -10 -4 -12 -1 -6 9 7 12 6 12 -7 1 -17 -14 -34 0 -23 18
3 6 -3 10 -14 10 -30 0 -36 -3 -35 -17 1 -7 -3 -10 -8 -7 -5 4 -8 14 -5 25 4
15 2 16 -14 6 -16 -10 -21 -9 -28 2 -7 11 -9 11 -14 0 -4 -11 -6 -11 -6 -1 -1
10 -33 13 -133 12 -73 0 -176 0 -228 0 -179 2 -240 -1 -234 -12 4 -6 -2 -6
-14 1 -27 15 -65 14 -81 -1 -11 -10 -13 -10 -7 0 5 7 1 12 -11 12 -10 0 -1 9
23 23 195 107 477 396 579 592 41 77 53 91 67 77 17 -17 63 -15 106 4 59 26
235 113 257 127 115 71 234 193 282 288 68 137 68 140 68 409 -1 226 -2 250
-23 309 -34 98 -80 186 -123 233 -21 24 -39 45 -39 48 0 3 -22 21 -49 40 -38
27 -57 50 -83 105 -43 90 -104 185 -120 186 -36 2 -153 -3 -160 -7 -3 -2 3
-15 15 -27 33 -35 89 -104 99 -120 7 -13 2 -13 -34 0 -57 20 -189 29 -215 14
-20 -10 -25 -6 -57 47 -19 31 -40 62 -46 69 -5 7 -10 17 -10 23 0 5 -3 10 -7
10 -5 0 -21 20 -36 45 -16 25 -33 45 -38 45 -5 0 -9 6 -9 13 -1 29 -326 327
-358 327 -6 0 -12 3 -14 8 -8 20 -300 172 -330 172 -8 0 -18 4 -24 9 -17 17
-207 67 -329 87 -86 14 -343 27 -375 19z m389 -245 c288 -52 564 -195 771
-400 99 -97 191 -218 209 -272 26 -78 -1 -101 -214 -182 -417 -158 -599 -239
-690 -309 -61 -46 -215 -206 -260 -270 -22 -31 -46 -59 -53 -62 -26 -10 -62 7
-81 39 -11 17 -31 43 -43 58 -13 15 -41 49 -62 75 -47 57 -161 159 -231 206
-116 78 -195 112 -559 238 -275 95 -293 103 -313 142 -20 39 -8 77 53 162 163
230 428 423 716 521 96 33 267 69 363 77 92 8 283 -3 394 -23z m-1407 -874
c204 -40 595 -222 687 -320 14 -14 30 -26 38 -26 7 0 12 -4 10 -9 -1 -5 6 -16
16 -23 13 -10 18 -28 18 -77 l1 -63 38 5 c21 2 44 1 51 -4 10 -6 11 -9 2 -9
-7 0 -13 -8 -13 -17 0 -15 -1 -15 -13 1 -9 12 -23 17 -42 14 -24 -2 -31 -9
-36 -33 l-7 -30 -1 33 c-1 30 -3 32 -36 32 -32 0 -35 -2 -37 -32 l-1 -33 -4
33 c-4 29 -7 32 -39 32 -26 0 -34 -4 -34 -17 -1 -17 -1 -17 -11 0 -15 26 -67
23 -79 -5 l-9 -23 0 23 c-1 18 -7 22 -36 22 -33 0 -35 -2 -36 -32 l-1 -33 -7
30 c-5 25 -12 31 -38 33 -26 3 -32 -1 -36 -20 l-4 -23 -8 23 c-6 17 -15 22
-41 22 -33 0 -34 -1 -36 -42 l-1 -43 -4 43 c-4 41 -5 42 -39 42 -32 0 -34 -2
-35 -32 l-1 -33 -7 30 c-5 26 -11 30 -44 33 l-37 3 -2 -48 -1 -48 -6 45 -6 45
-72 3 c-81 3 -78 5 -86 -83 -3 -27 -4 -20 -5 23 l-2 62 -44 0 c-36 0 -45 -4
-51 -22 l-8 -23 -4 23 c-4 18 -11 22 -39 22 -25 0 -34 -4 -35 -17 -1 -17 -2
-17 -6 0 -3 13 -15 17 -46 17 l-42 0 0 74 c0 41 -4 78 -8 82 -4 4 -23 8 -42 8
-34 1 -35 2 -35 41 0 49 -7 61 -42 67 -23 4 -27 1 -32 -26 -5 -21 -9 -27 -15
-18 -6 10 -16 7 -42 -11 l-35 -24 8 69 c4 38 12 85 18 104 24 72 91 125 194
155 78 22 294 25 398 5z m2671 -2 c82 -21 128 -46 166 -90 41 -46 49 -69 57
-155 l7 -70 -37 21 -36 22 -1 -29 c0 -27 0 -27 -12 7 -9 27 -18 36 -39 38 -22
3 -28 -2 -32 -20 -3 -13 -7 -32 -9 -43 -3 -14 -5 -12 -6 8 -1 36 -24 35 -51
-3 l-21 -30 46 0 c29 0 44 -4 40 -10 -4 -6 -11 -8 -16 -4 -5 3 -23 3 -39 -1
l-30 -7 0 -79 0 -79 -40 0 c-31 0 -40 -4 -40 -17 -1 -17 -1 -17 -11 0 -6 11
-22 17 -44 17 -32 0 -35 -2 -35 -30 0 -28 3 -30 35 -30 l34 0 -5 -152 c-3 -84
-9 -155 -13 -158 -11 -8 -31 -59 -31 -80 0 -11 11 -22 28 -28 l27 -10 -30 -2
c-16 -1 -36 -2 -42 -1 -8 1 -13 -9 -13 -24 0 -15 -4 -24 -10 -20 -9 6 -14 -7
-7 -21 6 -15 -169 -67 -303 -90 -120 -19 -471 -19 -609 2 -120 18 -214 57
-245 101 l-19 28 29 -26 c31 -28 114 -74 114 -63 0 4 6 2 13 -4 15 -13 56 -19
175 -29 l82 -6 2 54 2 54 3 -52 4 -53 49 0 50 0 -1 126 c0 69 2 129 5 132 3 3
6 -54 6 -126 l0 -132 70 0 70 0 2 188 c1 117 3 148 5 82 3 -68 8 -107 16 -112
9 -6 9 -8 0 -8 -9 0 -13 -22 -13 -75 l0 -75 44 0 c42 0 43 1 43 33 -3 93 4
340 8 335 3 -3 5 -87 6 -186 l0 -182 24 0 25 0 1 253 c1 167 4 237 10 207 4
-25 8 -136 9 -247 0 -125 4 -203 10 -203 6 0 11 72 12 183 l3 182 2 -183 c4
-215 22 -242 23 -34 1 138 15 302 19 217 1 -22 2 -111 1 -198 0 -109 3 -158
11 -155 7 2 11 77 11 228 0 124 2 215 5 203 2 -13 8 -23 13 -23 6 0 11 -90 13
-202 l2 -203 3 223 2 222 25 0 c21 0 25 -5 25 -30 0 -23 4 -30 20 -30 11 0 20
-7 20 -15 0 -9 9 -15 25 -15 13 0 29 -8 35 -17 8 -14 10 2 8 65 l-3 82 34 0
34 0 -7 46 c-3 26 -6 55 -6 66 0 17 -6 19 -47 16 l-48 -3 -6 -45 -6 -45 -1 48
-2 47 -74 0 -75 0 -3 -42 -4 -43 -8 43 c-8 41 -10 43 -40 40 -27 -3 -32 -7
-35 -38 l-4 -35 -6 35 c-5 31 -10 35 -38 38 -32 3 -33 2 -34 -35 -1 -39 -3
-38 -13 10 -6 23 -11 27 -41 27 -34 0 -35 -1 -37 -42 l-1 -43 -4 43 c-4 41 -5
42 -39 42 l-34 0 -2 -62 -2 -63 -3 63 -4 62 -34 0 c-27 0 -35 -5 -43 -27 l-10
-28 -1 28 c-1 24 -5 27 -36 27 -32 0 -35 -2 -37 -32 l-1 -33 -4 33 c-4 29 -7
32 -39 32 -26 0 -34 -4 -34 -17 -1 -17 -1 -17 -11 0 -6 10 -22 17 -39 17 -26
0 -30 -4 -31 -27 l-1 -28 -10 28 c-8 24 -15 28 -41 25 -26 -2 -33 -8 -38 -33
l-7 -30 -1 33 c0 18 -6 32 -13 33 -10 0 -10 2 0 6 6 2 13 19 13 36 l1 32 7
-30 c5 -25 12 -31 37 -33 l32 -3 1 63 c0 44 5 66 16 74 8 6 15 16 15 23 0 6 6
11 14 11 8 0 21 8 28 18 35 49 263 179 433 247 97 39 221 76 295 88 70 12 286
6 343 -9z m548 -409 c29 -63 26 -177 -7 -243 -48 -96 -157 -162 -214 -130 -25
14 -55 81 -44 99 3 5 24 9 47 9 52 0 123 35 151 73 16 21 21 44 21 87 0 49 -4
64 -30 96 -30 38 -30 40 -16 81 l15 41 29 -36 c16 -21 38 -55 48 -77z m-4041
28 c0 -7 -4 -13 -10 -13 -17 0 -60 -86 -60 -121 1 -86 84 -159 183 -159 l50 0
-6 -36 c-9 -55 -34 -77 -80 -71 -105 14 -197 137 -197 263 0 62 26 135 62 173
l32 34 13 -29 c6 -16 12 -35 13 -41z m45 -4 l19 -41 -26 -19 c-35 -26 -44 -69
-23 -109 18 -35 75 -65 105 -55 15 5 17 2 13 -15 -7 -27 -24 -34 -68 -26 -104
20 -146 148 -73 226 14 15 21 34 20 57 -2 42 9 36 33 -18z m3873 18 c-1 -14 8
-36 25 -56 46 -55 49 -122 7 -181 -38 -53 -150 -67 -150 -19 0 16 4 19 20 14
29 -9 86 22 100 56 18 42 5 98 -26 109 -29 11 -29 18 -7 65 19 40 36 46 31 12z
m-3295 -247 l-6 -40 37 0 36 0 1 -82 c1 -46 3 -75 6 -65 3 11 14 17 34 17 19
0 29 5 29 15 0 8 9 15 20 15 16 0 20 7 20 30 0 23 4 30 20 30 18 0 20 -7 22
-67 1 -42 3 -53 5 -30 2 20 11 49 19 65 12 24 14 4 14 -195 0 -192 2 -223 15
-223 12 0 15 14 15 65 0 45 -4 65 -12 65 -10 0 -9 3 1 9 10 6 12 31 10 99 -3
62 -1 85 6 74 5 -9 11 -85 13 -167 4 -150 4 -151 28 -153 l24 -2 1 203 c2 264
3 287 12 287 4 0 7 -112 7 -250 l0 -250 26 0 c25 0 25 0 23 80 -1 44 1 83 5
87 3 3 6 -32 6 -80 l0 -86 93 -3 c142 -5 147 -3 149 40 l1 37 4 -37 c4 -34 7
-38 34 -38 26 0 29 4 31 33 l1 32 4 -34 4 -34 102 6 c124 8 178 16 195 29 6 6
12 8 12 4 0 -11 83 34 115 63 26 23 26 22 -4 -11 -70 -77 -175 -99 -497 -105
-194 -4 -261 -2 -347 11 -109 18 -298 71 -295 84 3 16 -15 62 -26 63 -6 1 -15
2 -21 4 -5 1 -23 3 -39 3 -39 3 -28 12 19 16 l38 4 -2 78 c-3 103 -11 110 -11
10 0 -49 -4 -75 -10 -71 -5 3 -10 15 -10 25 0 11 -5 31 -12 45 -11 24 -13 25
-19 8 -9 -20 -11 26 -9 150 1 48 -3 77 -9 77 -6 0 -12 -25 -13 -57 -1 -38 -3
-46 -5 -23 -2 19 -7 42 -10 50 -3 8 -5 18 -5 23 1 4 -14 7 -33 7 -19 0 -35 5
-35 10 0 6 12 10 26 10 14 0 23 4 19 10 -4 6 5 10 19 10 14 0 26 -4 26 -10 0
-5 5 -10 11 -10 8 0 10 12 6 34 -5 34 -5 35 31 39 20 2 38 4 39 5 0 1 -1 -16
-4 -38z m1433 -461 c120 -112 237 -142 509 -131 88 4 246 7 352 7 178 0 193
-1 206 -19 22 -29 2 -77 -57 -139 -218 -230 -592 -407 -911 -432 -44 -3 -100
-8 -124 -10 -67 -5 -277 12 -366 30 -278 57 -551 196 -742 379 -95 90 -122
144 -87 171 22 17 41 18 194 14 63 -2 225 -4 360 -4 319 0 366 13 497 137 35
33 70 58 82 58 12 0 50 -26 87 -61z"/>
</g>
</svg>
