<?xml version="1.0" standalone="no"?>
<!DOCTYPE svg PUBLIC "-//W3C//DTD SVG 20010904//EN"
 "http://www.w3.org/TR/2001/REC-SVG-20010904/DTD/svg10.dtd">
<svg version="1.0" xmlns="http://www.w3.org/2000/svg"
 width="1000.000000pt" height="1000.000000pt" viewBox="0 0 1000.000000 1000.000000"
 preserveAspectRatio="xMidYMid meet">
<metadata>
Created by potrace 1.15, written by Peter Selinger 2001-2017
</metadata>
<g transform="translate(0.000000,1000.000000) scale(0.100000,-0.100000)"
fill="#000000" stroke="none">
<path d="M2490 7505 l-295 -295 1105 -1105 1105 -1105 -1105 -1105 -1105
-1105 298 -297 297 -298 1105 1105 1105 1105 1105 -1105 1105 -1105 297 298
298 297 -1105 1105 -1105 1105 1105 1105 1105 1105 -298 297 -297 298 -1105
-1105 -1105 -1105 -1103 1103 c-606 606 -1104 1102 -1107 1102 -3 0 -138 -133
-300 -295z"/>
</g>
</svg>
